# xmcd
#
# Track frame offsets:
# 150
# 19685
# 38140
# 56082
# 74990
# 91942
# 110237
# 125495
# 142330
# 161832
# 177855
# 198492
# 216210
# 233565
#
# Disc length: 3145 seconds
#
#
# Revision: 1
# Processed by: cddbd v1.5.1PL0 Copyright (c) Steve Scherf et al.
# Submitted via: FreeRIP 2.53 
#
DISCID=d90c470e
DTITLE=Zezé Di Camargo and Luciano - Lojas Marabraz - Vol. 1
DYEAR=1900
DGENRE=Country
TTITLE0=Amor Selvagem
TTITLE1=Indiferença
TTITLE2=Pão de Mel
TTITLE3=Será que foi saudade
TTITLE4=Tom juízo
TTITLE5=Vem ficar comigo
TTITLE6=É o amor
TTITLE7=Salva meu coração
TTITLE8=Saudade bandida
TTITLE9=Coração na contra-mão
TTITLE10=Sem medo de ser feliz
TTITLE11=Vem cuidar de mim
TTITLE12=Coração está em pedaços
TTITLE13=Emoção
EXTD=
EXTT0=
EXTT1=
EXTT2=
EXTT3=
EXTT4=
EXTT5=
EXTT6=
EXTT7=
EXTT8=
EXTT9=
EXTT10=
EXTT11=
EXTT12=
EXTT13=
PLAYORDER=
